<?xml version="1.0" encoding="UTF-8" standalone="no"?>
<!DOCTYPE svg PUBLIC "-//W3C//DTD SVG 1.1//EN" "http://www.w3.org/Graphics/SVG/1.1/DTD/svg11.dtd">
<svg width="100%" height="100%" viewBox="0 0 1202 293" version="1.1" xmlns="http://www.w3.org/2000/svg" xmlns:xlink="http://www.w3.org/1999/xlink" xml:space="preserve" xmlns:serif="http://www.serif.com/" style="fill-rule:evenodd;clip-rule:evenodd;stroke-linejoin:round;stroke-miterlimit:2;">
    <g transform="matrix(1,0,0,1,-8,5)">
        <g transform="matrix(1,0,0,1,-525.881,-470.334)">
            <g transform="matrix(288,0,0,288,898.553,685.758)">
                <path d="M0.344,0.006C0.309,0.006 0.283,-0.005 0.267,-0.026C0.251,-0.047 0.243,-0.074 0.243,-0.107C0.243,-0.121 0.245,-0.137 0.248,-0.155C0.251,-0.172 0.255,-0.189 0.259,-0.206C0.262,-0.223 0.265,-0.233 0.266,-0.238C0.271,-0.261 0.276,-0.284 0.281,-0.307C0.286,-0.33 0.288,-0.348 0.288,-0.362C0.288,-0.396 0.276,-0.413 0.252,-0.413C0.235,-0.413 0.219,-0.405 0.206,-0.388C0.193,-0.371 0.182,-0.348 0.174,-0.321L0.106,-0L-0.038,-0L0.068,-0.5L0.212,-0.5L0.201,-0.448C0.234,-0.485 0.273,-0.504 0.318,-0.504C0.352,-0.504 0.379,-0.495 0.399,-0.476C0.419,-0.457 0.429,-0.429 0.429,-0.391C0.429,-0.372 0.427,-0.35 0.422,-0.327C0.417,-0.303 0.411,-0.274 0.402,-0.24C0.397,-0.219 0.392,-0.199 0.388,-0.18C0.383,-0.16 0.381,-0.144 0.381,-0.133C0.381,-0.12 0.384,-0.109 0.39,-0.102C0.396,-0.095 0.406,-0.091 0.421,-0.091C0.437,-0.091 0.448,-0.093 0.454,-0.097C0.45,-0.063 0.438,-0.037 0.418,-0.02C0.397,-0.003 0.373,0.006 0.344,0.006Z" style="fill:white;fill-rule:nonzero;"/>
            </g>
            <g transform="matrix(288,0,0,288,898.553,685.758)">
            </g>
            <g transform="matrix(288,0,0,288,1353.88,685.758)">
            </g>
            <g transform="matrix(288,0,0,288,1427.03,685.758)">
            </g>
            <g transform="matrix(288,0,0,288,1737.78,685.758)">
            </g>
            <text x="525.881px" y="685.758px" style="font-family:'Lobster-Regular', 'Lobster';font-size:288px;fill:white;">...u<tspan x="1029.31px " y="685.758px "> </tspan>caﬀè?</text>
        </g>
    </g>
</svg>
