<svg viewBox="0 0 45 43" xmlns="http://www.w3.org/2000/svg" xmlns:xlink="http://www.w3.org/1999/xlink" xmlns:serif="http://www.serif.com/" style="fill-rule:evenodd;clip-rule:evenodd;stroke-linejoin:round;stroke-miterlimit:2"><rect id="Artboard1" x="0" y="0" width="45.851" height="43" style="fill:none"/><g id="Artboard11" serif:id="Artboard1"><g transform="matrix(0.601425,0,0,0.601425,-22.8634,-23.8776)"><g><g><g transform="matrix(0.784779,0,0,0.784779,8.24272,-802.089)"><path d="M62.787 1163.55C59.99 1161.97 57.366 1160.12 54.953 1158.03 64.751 1154.11 75.329 1151.74 86.361 1151.74 97.393 1151.74 107.972 1154.11 117.77 1158.03 115.537 1159.96 113.126 1161.69 110.563 1163.19 104.345 1160.74 96.125 1159.25 87.117 1159.25 77.675 1159.25 69.099 1160.89 62.787 1163.55zM48.355 1151.07C42.052 1142.94 38.299 1132.74 38.299 1121.67 38.299 1095.14 59.835 1073.6 86.361 1073.6S134.423 1095.14 134.423 1121.67C134.423 1132.74 130.67 1142.94 124.367 1151.07 112.788 1147.93 99.917 1146.17 86.361 1146.17S59.934 1147.93 48.355 1151.07zM60.27 1140.73S74.111 1142.93 85.133 1142.94C95.806 1142.94 107.775 1141.96 107.775 1141.96 115.301 1140.88 117.578 1139.55 117.578 1139.55 119.048 1138.97 119.545 1136.22 117.536 1135.24 116.637 1134.8 85.516 1131.52 84.343 1131.45L65.678 1131.5C63.427 1131.37 53.949 1132.09 53.904 1133.37 53.904 1133.37 52.875 1139.47 60.27 1140.73zM66.151 1127.78 97.591 1130.91C110.634 1130.88 111.674 1123.44 111.019 1121.52 110.173 1119.06 98.039 1117.42 96.905 1117.53L67.663 1119.84C65.566 1120.04 61.624 1121.37 61.647 1122.94 61.647 1122.94 60.509 1125 65.816 1127.68 65.956 1127.78 66.141 1127.78 66.151 1127.78zM107.581 1113.83S95.433 1116.71 85.607 1116.99C76.094 1117.25 65.347 1116.4 65.347 1116.4 58.548 1115.32 56.414 1113.84 56.414 1113.84 55.052 1113.19 54.259 1110.23 55.97 1109.05 56.732 1108.52 84.213 1103.94 85.253 1103.83L101.894 1103.45C103.881 1103.25 112.382 1103.85 112.535 1105.33 112.535 1105.33 114.067 1112.18 107.581 1113.83zM75.662 1094.47 90.02 1093.89C96.058 1093.9 95.52 1099.2 95.122 1099.56 94.726 1099.91 93.751 1101.09 87.93 1102.17 85.903 1102.31 83.847 1102.41 81.71 1102.41 79.991 1102.54 78.187 1102.3 76.326 1101.82 75.363 1101.68 74.042 1100.78 73.53 1099.86 73.53 1099.86 69.716 1095.53 75.662 1094.47z"/></g></g></g></g></g></svg>