<?xml version="1.0" encoding="UTF-8" standalone="no"?>
<!DOCTYPE svg PUBLIC "-//W3C//DTD SVG 1.1//EN" "http://www.w3.org/Graphics/SVG/1.1/DTD/svg11.dtd">
<svg width="100%" height="100%" viewBox="0 0 185 43" version="1.1"
    xmlns="http://www.w3.org/2000/svg"
    xmlns:xlink="http://www.w3.org/1999/xlink" xml:space="preserve"
    xmlns:serif="http://www.serif.com/" style="fill-rule:evenodd;clip-rule:evenodd;stroke-linejoin:round;stroke-miterlimit:2;">
    <g transform="matrix(1,0,0,1,-62,-1339)">
        <g transform="matrix(1,0,0,2.61759,10,1295)">
            <g transform="matrix(0.601425,0,0,0.229763,29.1366,7.68736)">
                <g transform="matrix(0.784779,0,0,0.784779,8.24272,-802.089)">
                    <path d="M62.787,1163.55C59.99,1161.97 57.366,1160.12 54.953,1158.03C64.751,1154.11 75.329,1151.74 86.361,1151.74C97.393,1151.74 107.972,1154.11 117.77,1158.03C115.537,1159.96 113.126,1161.69 110.563,1163.19C104.345,1160.74 96.125,1159.25 87.117,1159.25C77.675,1159.25 69.099,1160.89 62.787,1163.55ZM48.355,1151.07C42.052,1142.94 38.299,1132.74 38.299,1121.67C38.299,1095.14 59.835,1073.6 86.361,1073.6C112.887,1073.6 134.423,1095.14 134.423,1121.67C134.423,1132.74 130.67,1142.94 124.367,1151.07C112.788,1147.93 99.917,1146.17 86.361,1146.17C72.805,1146.17 59.934,1147.93 48.355,1151.07ZM60.27,1140.73C60.27,1140.73 74.111,1142.93 85.133,1142.94C95.806,1142.94 107.775,1141.96 107.775,1141.96C115.301,1140.88 117.578,1139.55 117.578,1139.55C119.048,1138.97 119.545,1136.22 117.536,1135.24C116.637,1134.8 85.516,1131.52 84.343,1131.45L65.678,1131.5C63.427,1131.37 53.949,1132.09 53.904,1133.37C53.904,1133.37 52.875,1139.47 60.27,1140.73ZM66.151,1127.78L97.591,1130.91C110.634,1130.88 111.674,1123.44 111.019,1121.52C110.173,1119.06 98.039,1117.42 96.905,1117.53L67.663,1119.84C65.566,1120.04 61.624,1121.37 61.647,1122.94C61.647,1122.94 60.509,1125 65.816,1127.68C65.956,1127.78 66.141,1127.78 66.151,1127.78ZM107.581,1113.83C107.581,1113.83 95.433,1116.71 85.607,1116.99C76.094,1117.25 65.347,1116.4 65.347,1116.4C58.548,1115.32 56.414,1113.84 56.414,1113.84C55.052,1113.19 54.259,1110.23 55.97,1109.05C56.732,1108.52 84.213,1103.94 85.253,1103.83L101.894,1103.45C103.881,1103.25 112.382,1103.85 112.535,1105.33C112.535,1105.33 114.067,1112.18 107.581,1113.83ZM75.662,1094.47L90.02,1093.89C96.058,1093.9 95.52,1099.2 95.122,1099.56C94.726,1099.91 93.751,1101.09 87.93,1102.17C85.903,1102.31 83.847,1102.41 81.71,1102.41C79.991,1102.54 78.187,1102.3 76.326,1101.82C75.363,1101.68 74.042,1100.78 73.53,1099.86C73.53,1099.86 69.716,1095.53 75.662,1094.47Z"/>
                </g>
                <g transform="matrix(0.784779,0,0,0.784779,8.24272,-786.433)">
                    <path d="M151.78,1095.4C151.78,1093.83 153.054,1092.55 154.624,1092.55L156.177,1092.55L156.177,1097.22C159.14,1094.06 163.337,1092.09 168.194,1092.09C174.104,1092.09 179.544,1095.38 182.445,1100.3C185.269,1095.38 190.511,1092.09 196.762,1092.09C205.614,1092.09 213.297,1099.32 213.297,1108.64L213.297,1125.11L211.741,1125.11C210.17,1125.11 208.904,1123.84 208.904,1122.27L208.904,1108.64C208.904,1101.94 203.45,1096.49 196.814,1096.49C190.255,1096.49 184.998,1101.68 184.731,1108.17L184.731,1125.11L180.346,1125.11L180.346,1108.17C180.069,1101.68 174.684,1096.49 168.266,1096.49C161.696,1096.49 156.439,1101.68 156.177,1108.17L156.177,1122.27C156.177,1123.84 154.907,1125.11 153.339,1125.11L151.78,1125.11L151.78,1095.4Z" style="fill-rule:nonzero;"/>
                </g>
                <g transform="matrix(0.784779,0,0,0.784779,8.24272,-786.072)">
                    <path d="M246.309,1108.38C246.309,1101.68 240.923,1096.3 234.235,1096.3C227.592,1096.3 222.158,1101.68 222.158,1108.38C222.158,1115.01 227.592,1120.46 234.235,1120.46C240.923,1120.46 246.309,1115.01 246.309,1108.38M250.7,1108.44C250.7,1117.57 243.419,1124.85 234.168,1124.85C224.969,1124.85 217.758,1117.57 217.758,1108.44C217.758,1099.18 224.845,1091.89 234.168,1091.89C243.03,1091.89 250.7,1099.12 250.7,1108.44" style="fill-rule:nonzero;"/>
                </g>
                <g transform="matrix(0.784779,0,0,0.784779,8.24272,-786.425)">
                    <path d="M255.83,1095.39C255.83,1093.82 257.103,1092.54 258.675,1092.54L260.235,1092.54L260.235,1097.21C263.192,1094.05 267.39,1092.09 272.236,1092.09C281.108,1092.09 288.79,1099.31 288.79,1108.63L288.79,1125.1L287.237,1125.1C285.663,1125.1 284.396,1123.83 284.396,1122.26L284.396,1108.63C284.396,1101.93 278.941,1096.48 272.309,1096.48C265.749,1096.48 260.494,1101.67 260.235,1108.16L260.235,1122.26C260.235,1123.83 258.957,1125.1 257.395,1125.1L255.83,1125.1L255.83,1095.39Z" style="fill-rule:nonzero;"/>
                </g>
                <g transform="matrix(0.784779,0,0,0.784779,8.24272,-786.417)">
                    <path d="M330.79,1095.38C330.79,1093.81 332.064,1092.53 333.63,1092.53L335.189,1092.53L335.189,1097.2C338.145,1094.04 342.348,1092.08 347.207,1092.08C353.114,1092.08 358.558,1095.36 361.447,1100.28C364.273,1095.36 369.531,1092.08 375.768,1092.08C384.625,1092.08 392.308,1099.3 392.308,1108.62L392.308,1125.1L390.746,1125.1C389.181,1125.1 387.902,1123.82 387.902,1122.26L387.902,1108.62C387.902,1101.92 382.453,1096.47 375.831,1096.47C369.254,1096.47 364.009,1101.66 363.75,1108.15L363.75,1125.1L359.347,1125.1L359.347,1108.15C359.089,1101.66 353.705,1096.47 347.271,1096.47C340.695,1096.47 335.455,1101.66 335.189,1108.15L335.189,1122.26C335.189,1123.82 333.912,1125.1 332.347,1125.1L330.79,1125.1L330.79,1095.38Z" style="fill-rule:nonzero;"/>
                </g>
                <g transform="matrix(0.784779,0,0,0.784779,8.24272,-786.652)">
                    <path d="M301.219,1100.48C305.93,1095.73 313.542,1095.7 318.288,1100.42C320.113,1102.21 321.233,1104.44 321.668,1106.71L297.897,1106.8C298.305,1104.53 299.405,1102.29 301.219,1100.48M316.587,1119.06C311.892,1122.25 305.477,1121.72 301.282,1117.57C299.462,1115.76 298.344,1113.41 297.912,1111.14L314.451,1111.08L326.01,1111.08C326.095,1110.54 326.162,1109.98 326.203,1109.41C326.275,1104.97 324.655,1100.52 321.34,1097.24C314.727,1090.67 304.562,1090.86 298.032,1097.42C291.616,1103.91 291.606,1114.16 298.132,1120.63C303.301,1125.76 310.755,1126.81 316.824,1123.9L317.025,1123.76C317.301,1123.62 321.446,1121.64 324.051,1116.78L321.458,1116.4C320.248,1116.4 319.077,1116.9 318.225,1117.76L316.587,1119.06Z" style="fill-rule:nonzero;"/>
                </g>
                <g transform="matrix(0.784779,0,0,0.784779,8.24272,-786.841)">
                    <path d="M429.67,1108.36C429.427,1099.25 421.872,1092.26 413.159,1092.26C403.839,1092.26 396.752,1099.55 396.752,1108.81C396.752,1117.93 403.965,1125.22 413.159,1125.22C415.952,1125.22 418.555,1124.55 420.839,1123.37L420.839,1123.35C420.839,1122.34 420.361,1121.39 419.556,1120.79C418.74,1120.18 417.695,1120.01 416.736,1120.3C415.627,1120.64 414.451,1120.82 413.224,1120.82C406.594,1120.82 401.145,1115.37 401.145,1108.74C401.145,1102.05 406.594,1096.66 413.224,1096.66C419.793,1096.66 425.079,1101.85 425.287,1108.36C425.287,1108.45 425.292,1108.52 425.292,1108.61L425.292,1122.63C425.292,1124.19 426.569,1125.46 428.137,1125.46L429.693,1125.46L429.693,1108.36L429.67,1108.36" style="fill-rule:nonzero;"/>
                </g>
            </g>
        </g>
    </g>
</svg>
