<?xml version="1.0" encoding="UTF-8" standalone="no"?>
<!-- Created with Inkscape (http://www.inkscape.org/) -->

<svg width="84.666672mm" height="25.640694mm" viewBox="0 0 84.66667 25.640693" version="1.1" id="svg5" sodipodi:docname="logo.svg" inkscape:version="1.2 (1:1.2.1+202207142221+cd75a1ee6d)"
   xmlns:inkscape="http://www.inkscape.org/namespaces/inkscape"
   xmlns:sodipodi="http://sodipodi.sourceforge.net/DTD/sodipodi-0.dtd"
   xmlns="http://www.w3.org/2000/svg"
   xmlns:svg="http://www.w3.org/2000/svg">
   <sodipodi:namedview id="namedview9" pagecolor="#ffffff" bordercolor="#666666" borderopacity="1.0" inkscape:showpageshadow="2" inkscape:pageopacity="0.0" inkscape:pagecheckerboard="0" inkscape:deskcolor="#d1d1d1" inkscape:document-units="mm" showgrid="false" inkscape:zoom="0.91248086" inkscape:cx="469.05094" inkscape:cy="86.577159" inkscape:window-width="1600" inkscape:window-height="816" inkscape:window-x="0" inkscape:window-y="0" inkscape:window-maximized="1" inkscape:current-layer="layer1" />
   <defs id="defs2">
      <rect x="120.92102" y="402.97296" width="682.76514" height="281.05197" id="rect113" />
   </defs>
   <g id="layer1" transform="translate(-83.267107,-143.37703)">
      <g aria-label="LiveFireDev" transform="matrix(0.40305752,0,0,0.40305752,47.093519,-29.658784)" id="text111" style="font-size:40px;line-height:1.25;white-space:pre;shape-inside:url(#rect113)">
         <path id="path342" style="font-weight:800;font-family:'Noto Sans';-inkscape-font-specification:'Noto Sans Ultra-Bold'" d="m 289.72896,437.62798 c 3.09333,0 5.54667,0.85333 7.36,2.56 1.81333,1.68 2.72,4.16 2.72,7.44 v 3.12 h -13.88 c 0.0533,1.44 0.52,2.58667 1.4,3.44 0.88,0.85333 2.13333,1.28 3.76,1.28 1.38667,0 2.65333,-0.13333 3.8,-0.4 1.17333,-0.26667 2.37333,-0.69333 3.6,-1.28 v 5 c -1.09333,0.56 -2.25333,0.96 -3.48,1.2 -1.2,0.26667 -2.69333,0.4 -4.48,0.4 -2.21333,0 -4.18667,-0.4 -5.92,-1.2 -1.70667,-0.8 -3.05333,-2.02667 -4.04,-3.68 -0.96,-1.68 -1.44,-3.8 -1.44,-6.36 0,-2.58667 0.44,-4.73333 1.32,-6.44 0.88,-1.70667 2.10667,-2.97333 3.68,-3.8 1.6,-0.85333 3.46667,-1.28 5.6,-1.28 z m 0.12,4.68 c -1.04,0 -1.90667,0.33333 -2.6,1 -0.66667,0.64 -1.06667,1.66667 -1.2,3.08 h 7.56 c -0.0267,-1.14667 -0.34667,-2.10667 -0.96,-2.88 -0.61333,-0.8 -1.54667,-1.2 -2.8,-1.2 z m -14.47992,-4.68 c 0.34667,0 0.73333,0.0267 1.16,0.08 0.42667,0.0267 0.76,0.0667 1,0.12 l -0.56,6.32 c -0.24,-0.0533 -0.54667,-0.0933 -0.92,-0.12 -0.37333,-0.0533 -0.78667,-0.08 -1.24,-0.08 -0.85333,0 -1.70667,0.13333 -2.56,0.4 -0.82667,0.26667 -1.52,0.77333 -2.08,1.52 -0.53333,0.72 -0.8,1.76 -0.8,3.12 v 11 h -6.76 v -21.96 h 5.08 l 1.04,3.6 h 0.28 c 0.64,-1.09333 1.52,-2.02667 2.64,-2.8 1.12,-0.8 2.36,-1.2 3.72,-1.2 z m -21.87997,-8.32 c 0.96,0 1.8,0.21333 2.52,0.64 0.72,0.42667 1.08,1.25333 1.08,2.48 0,1.2 -0.36,2.02667 -1.08,2.48 -0.72,0.42667 -1.56,0.64 -2.52,0.64 -1.01333,0 -1.88,-0.21333 -2.6,-0.64 -0.69333,-0.45333 -1.04,-1.28 -1.04,-2.48 0,-1.22667 0.34667,-2.05333 1.04,-2.48 0.72,-0.42667 1.58667,-0.64 2.6,-0.64 z m 3.32,8.72 v 21.96 h -6.72 v -21.96 z m -21.31995,21.96 h -6.72 v -28.56 h 16.6 v 5.52 h -9.88 v 6.48 h 9.16 v 5.52 h -9.16 z m -21.83995,-22.36 c 3.09333,0 5.54667,0.85333 7.36,2.56 1.81333,1.68 2.72,4.16 2.72,7.44 v 3.12 h -13.88 c 0.0533,1.44 0.52,2.58667 1.4,3.44 0.88,0.85333 2.13333,1.28 3.76,1.28 1.38667,0 2.65333,-0.13333 3.8,-0.4 1.17333,-0.26667 2.37333,-0.69333 3.6,-1.28 v 5 c -1.09333,0.56 -2.25333,0.96 -3.48,1.2 -1.2,0.26667 -2.69333,0.4 -4.48,0.4 -2.21333,0 -4.18667,-0.4 -5.92,-1.2 -1.70667,-0.8 -3.05333,-2.02667 -4.04,-3.68 -0.96,-1.68 -1.44,-3.8 -1.44,-6.36 0,-2.58667 0.44,-4.73333 1.32,-6.44 0.88,-1.70667 2.10667,-2.97333 3.68,-3.8 1.6,-0.85333 3.46667,-1.28 5.6,-1.28 z m 0.12,4.68 c -1.04,0 -1.90667,0.33333 -2.6,1 -0.66667,0.64 -1.06667,1.66667 -1.2,3.08 h 7.56 c -0.0267,-1.14667 -0.34667,-2.10667 -0.96,-2.88 -0.61333,-0.8 -1.54667,-1.2 -2.8,-1.2 z m -27.63997,17.68 -8.36,-21.96 h 7.04 l 4,12.72 c 0.13333,0.45333 0.25333,1.01333 0.36,1.68 0.13333,0.64 0.21333,1.22667 0.24,1.76 h 0.16 c 0.0267,-0.56 0.0933,-1.14667 0.2,-1.76 0.13333,-0.61333 0.28,-1.16 0.44,-1.64 l 4.08,-12.76 h 7 l -8.36,21.96 z m -14.59997,-30.68 c 0.96,0 1.8,0.21333 2.52,0.64 0.72,0.42667 1.08,1.25333 1.08,2.48 0,1.2 -0.36,2.02667 -1.08,2.48 -0.72,0.42667 -1.56,0.64 -2.52,0.64 -1.01333,0 -1.88,-0.21333 -2.6,-0.64 -0.69333,-0.45333 -1.04,-1.28 -1.04,-2.48 0,-1.22667 0.34667,-2.05333 1.04,-2.48 0.72,-0.42667 1.58667,-0.64 2.6,-0.64 z m 3.32,8.72 v 21.96 h -6.72 v -21.96 z m -29.19999,21.96 v -28.56 h 6.79999 v 23 h 11.32 v 5.56 z" sodipodi:nodetypes="scsccssccccsccsscssccccssccccsccscccccccsssscscscsccccccccccccccccscsccssccccsccsscssccccscccccccccccccssscscscscccccccccccc" />
         <path id="path216" style="font-weight:800;font-family:'Noto Sans';-inkscape-font-specification:'Noto Sans Ultra-Bold'" d="m 203.44915,492.52345 -8.36,-21.96 h 7.04 l 4,12.72 c 0.13333,0.45333 0.25333,1.01333 0.36,1.68 0.13333,0.64 0.21333,1.22667 0.24,1.76 h 0.16 c 0.0267,-0.56 0.0933,-1.14667 0.2,-1.76 0.13333,-0.61333 0.28,-1.16 0.44,-1.64 l 4.08,-12.76 h 7 l -8.36,21.96 z m -19.31993,-22.36 c 3.09333,0 5.54667,0.85333 7.36,2.56 1.81333,1.68 2.72,4.16 2.72,7.44 v 3.12 h -13.88 c 0.0533,1.44 0.52,2.58667 1.4,3.44 0.88,0.85333 2.13333,1.28 3.76,1.28 1.38667,0 2.65333,-0.13333 3.8,-0.4 1.17333,-0.26667 2.37333,-0.69333 3.6,-1.28 v 5 c -1.09333,0.56 -2.25333,0.96 -3.48,1.2 -1.2,0.26667 -2.69333,0.4 -4.48,0.4 -2.21333,0 -4.18667,-0.4 -5.92,-1.2 -1.70667,-0.8 -3.05333,-2.02667 -4.04,-3.68 -0.96,-1.68 -1.44,-3.8 -1.44,-6.36 0,-2.58667 0.44,-4.73333 1.32,-6.44 0.88,-1.70667 2.10667,-2.97333 3.68,-3.8 1.6,-0.85333 3.46667,-1.28 5.6,-1.28 z m 0.12,4.68 c -1.04,0 -1.90667,0.33333 -2.6,1 -0.66667,0.64 -1.06667,1.66667 -1.2,3.08 h 7.56 c -0.0267,-1.14667 -0.34667,-2.10667 -0.96,-2.88 -0.61333,-0.8 -1.54667,-1.2 -2.8,-1.2 z m -14.67998,2.96 c 0,3.28 -0.61333,6.01333 -1.84,8.2 -1.22667,2.16 -2.98667,3.78667 -5.28,4.88 -2.29333,1.09333 -5.02667,1.64 -8.2,1.64 h -8.6 v -28.56 h 9.4 c 4.53333,0 8.08,1.18667 10.64,3.56 2.58667,2.34667 3.88,5.77333 3.88,10.28 z m -7.04,0.24 c 0,-2.90667 -0.61333,-5.05333 -1.84,-6.44 -1.22667,-1.38667 -3.04,-2.08 -5.44,-2.08 h -2.8 v 17.4 h 2.2 c 2.69333,0 4.68,-0.73333 5.96,-2.2 1.28,-1.49333 1.92,-3.72 1.92,-6.68 z" sodipodi:nodetypes="cccccccccccccscsccssccccsccsscssccccsscssccscssssccscs" />
      </g>
      <path d="m 91.69995,143.37703 c 1.35953,3.64353 0.652575,5.62844 -0.870096,7.2055 -1.658624,1.74019 -4.241727,3.04534 -6.063493,5.60125 -2.41996,3.39882 -2.827819,10.87622 5.90035,12.83394 -3.670726,-1.93053 -4.459252,-7.53178 -0.48943,-11.03936 -1.033242,3.39882 0.870097,5.57406 3.235676,4.78554 2.311198,-0.78853 3.833868,0.8701 3.779487,2.77343 -0.02719,1.30515 -0.543812,2.41996 -1.876149,3.04535 5.682825,-1.00606 7.966835,-5.71002 7.966835,-9.29917 0,-4.73116 -4.214538,-5.38373 -2.09367,-9.35356 -2.528725,0.21753 -3.398824,1.87615 -3.154109,4.5952 0.163143,1.79458 -1.713006,3.01816 -3.099724,2.20244 -1.114812,-0.67976 -1.087622,-1.98491 -0.108762,-2.96377 2.093672,-2.06648 2.90939,-6.82483 -3.126915,-10.38679 z" id="path265" style="strokeWidth:0.0271904" />
   </g>
</svg>
